<svg width="3333.33" height="3333.33" xmlns="http://www.w3.org/2000/svg" clip-rule="evenodd" fill-rule="evenodd" version="1.1" xml:space="preserve">

 <g>
  <title>Layer 1</title>
  <g id="svg_1">
   <path id="svg_2" fill="black" d="m2592.82,1725.87c241.8,0 437.81,196.01 437.81,437.81c0,241.8 -196.01,437.81 -437.81,437.81c-241.81,0 -437.82,-196.01 -437.82,-437.81c0,-181.06 109.9,-336.44 266.64,-403.08c-13.37,-45.7 -26.23,-91.46 -38.67,-137.26c-245.24,51.49 -489.97,105.36 -734.41,160.53l-151.9,241.65c41.61,33.08 60.7,86.69 49.47,138.44l27.54,7.59l11.11,-44.43c2.86,-11.44 20.26,-7.09 17.4,4.35l-13.41,53.54c-1.31,4.76 -6.25,7.56 -11.01,6.24l-36.53,-10.07c-18.89,52.88 -68.89,91 -127.94,92.27l-254.55,20.12c-55.33,178.39 -221.64,307.93 -418.23,307.93c-241.8,0 -437.81,-196.01 -437.81,-437.81c0,-241.8 196.01,-437.81 437.81,-437.81c134.61,0 255.02,60.76 335.32,156.33l225.98,-146.46l-49.46,-257.84l-3.19,2l-3.69,1.36l-24.61,3.32l-2.48,-18.5l22.67,-3.06l7.56,-4.73l-1.07,-5.58l9.17,-1.75l-92.93,-502.28c-49.76,16.9 -90.63,27.21 -108.09,10.81c-49.12,-63.15 -144.43,-77.76 -110.52,-128.05c27.26,-33.52 262,-1.15 436.19,-2.92c50.76,-1.76 63.04,76 0.58,65.48c-51.5,-3.43 -116.44,18.78 -175.43,39.69l94.14,508.85l8.54,-1.63l63.71,332.13c329.95,-75.52 660.38,-149.39 991.61,-219.04c-13.65,-52.09 -26.8,-104.22 -39.53,-156.39l12.99,-3.14l-114.13,-496.69c-2.85,-9.97 1.53,-20.94 11.06,-25.99c16.67,-8.85 73.34,-34.01 82.2,-44.57c10.17,-12.13 17.79,-59.24 21.69,-77.8c5.98,-28.82 49.85,-19.73 43.85,9.12c-6.09,28.99 -12.42,75.06 -31.18,97.45c-16.77,20.04 -55.7,34.87 -80.32,47.5l110.38,480.44l13.06,-3.16c29.01,118.83 60.29,237.93 95.17,357.34c33.06,-7.98 67.58,-12.24 103.09,-12.24l-0.02,-0.01zm-1126.15,416.19l53.45,14.74c8.16,-40.28 -6.22,-81.81 -37.86,-108.34l-29.93,47.62c11.36,12.46 16.6,29.31 14.34,45.98zm48.51,31.94l-53.66,-14.8c-9.22,19.03 -28.7,32.16 -51.28,32.16c-23.26,0 -43.27,-13.95 -52.1,-33.94l-57.49,0.69c10.87,50.53 55.8,88.43 109.59,88.43c48.03,0 88.95,-30.13 104.94,-72.54zm-165.35,85.7c-39.62,-19.13 -68.79,-56.54 -76.57,-101.26l-94.99,1.15l0.06,4.09c0,38.24 -4.91,75.34 -14.13,110.7l185.64,-14.68l-0.01,0zm-648.36,51.27l350.97,-27.75c14.22,-37.12 22.04,-77.4 22.04,-119.52l-0.03,-2.84l-259.02,3.14c-8.11,55.17 -61.51,91.38 -115.43,79.47l-11.76,41.17c8.05,4.23 13.54,12.67 13.54,22.38c0,1.35 -0.11,2.66 -0.31,3.96l0,-0.01zm342.81,-8.35l-360.17,28.49c-2.4,0.75 -4.95,1.16 -7.59,1.16c-13.95,0 -25.26,-11.31 -25.26,-25.26c0,-11.44 7.61,-21.11 18.05,-24.22l12.9,-45.15c-33.7,-14.82 -57.24,-48.51 -57.24,-87.68c0,-57.02 49.52,-101.26 105.99,-95.2l91.06,-8.07l165.8,-107.46c-61.09,-67.28 -149.27,-109.53 -247.31,-109.53c-184.47,0 -333.99,149.52 -333.99,333.99c0,184.45 149.52,333.97 333.99,333.97c134.87,0 251.06,-79.96 303.77,-195.05l0,0.01zm286.58,-282.35l-171.64,15.23c7.82,25.55 13.35,52.1 16.38,79.41l97.11,-1.18c5.77,-38.61 27.46,-72.07 58.15,-93.46zm-278.13,24.67l-168.84,14.98l-76.41,49.53c1.5,3.2 2.83,6.5 3.98,9.89l259.65,-3.15c-3.52,-24.72 -9.75,-48.57 -18.37,-71.24l-0.01,-0.01zm-264.15,23.43l-15.59,1.38c2.2,1.44 4.34,2.96 6.41,4.57l9.19,-5.95l-0.01,0zm128.75,-30.12l127.91,-11.35c-8.27,-18.41 -18.18,-35.95 -29.52,-52.42l-98.39,63.77zm235.9,-20.93l199.19,-17.66l-41.53,-216.48l-208,134.8c20.77,30.57 37.77,63.91 50.33,99.35l0.01,-0.01zm262.3,-21.85c14.7,0.55 28.82,3.38 42.02,8.18l129.38,-205.82c-66.37,15.04 -133.3,30.3 -200.54,45.69l29.15,151.96l-0.01,-0.01zm-57.94,117.23c2.97,-7.2 7.39,-13.66 12.87,-19.02l-11.34,-59.08c-30.24,15.52 -52.49,44.37 -59.03,78.8l57.5,-0.7zm85.21,-85.59c-7.07,-2.14 -14.43,-3.6 -22.03,-4.31l5.78,30.16l16.25,-25.85zm1160.6,61.59c36.81,5.16 65.14,36.76 65.14,74.98c0,41.83 -33.9,75.72 -75.72,75.72c-41.83,0 -75.73,-33.9 -75.73,-75.72c0,-19.3 7.22,-36.91 19.11,-50.29c-30.39,-84.33 -58.38,-168.5 -84.4,-252.53c-113.98,53.17 -192.97,168.76 -192.97,302.83c0,184.45 149.52,333.97 333.99,333.97c184.45,0 333.97,-149.52 333.97,-333.97c0,-184.47 -149.52,-333.99 -333.97,-333.99c-25.14,0 -49.61,2.8 -73.16,8.06c25.91,83.79 53.67,167.46 83.73,250.94l0.01,0z" class="fil0"/>
  </g>
  <text id="svg_3" font-family="'Helvetica Neue', Helvetica, Arial-Unicode, Arial, Sans-serif" font-weight="bold" font-size="5px" fill="#000000" y="3348.33" x="0">Created by Hamba Allah Pencari Rezeki</text>
  <text id="svg_4" font-family="'Helvetica Neue', Helvetica, Arial-Unicode, Arial, Sans-serif" font-weight="bold" font-size="5px" fill="#000000" y="3353.33" x="0">from the Noun Project</text>
 </g>
</svg>