<svg width="100" height="100" xmlns="http://www.w3.org/2000/svg" data-name="Your Icon">

 <g>
  <title>Layer 1</title>
  <path id="svg_1" d="m76.73,39.6a17.32,17.32 0 0 0 -5.22,0.8a28.7,28.7 0 0 0 0.25,-7.83a2.42,2.42 0 0 0 -0.32,-1a0.84,0.84 0 0 0 -0.09,-0.57l0,-0.05c-0.08,-0.22 -0.41,-0.38 -0.82,-0.5a8.11,8.11 0 0 0 -1.43,-1l0,0l0,-0.24l-0.3,-0.42l-0.12,-0.66l-1,-1.14c-0.3,-0.6 -0.84,-0.06 -0.84,-0.06a0.61,0.61 0 0 0 -1,-0.18l-0.39,0.18a0.84,0.84 0 0 0 -1.5,0.71l0,0l-1.5,0.54l0.06,0.36l-0.3,0.24l0.48,1.32l0.48,0l-0.3,0.18l0,0.24l2.16,-0.78l0.6,0l1.26,0.78l0.78,0l0.42,-0.33l0,0.15a12.86,12.86 0 0 1 2.23,0.33a4.48,4.48 0 0 1 0.8,0.94c-0.26,0.52 -1.7,1.18 -4.51,2.05l-1.51,-3.56l-2.1,0.8s0.3,0.3 -1.08,0.72c0,0 -13.86,4.26 -21.72,7.44c0,0 -1.44,0.6 -1.74,0.3a1.36,1.36 0 0 1 -0.33,-0.48l0,0l0,0l-3,-10.34l-0.64,-0.31l0,-0.3a3,3 0 0 0 1.32,-0.2l1.46,-1.06a7.4,7.4 0 0 0 1.9,-0.17c0.46,-0.2 -0.5,-1 -1.86,-0.9c-5.24,0.28 -8.31,0.16 -8.31,0.16a3.22,3.22 0 0 1 -0.76,-0.1c-0.35,-0.1 -0.61,0.3 -0.51,0.45s0.31,0.56 1.52,0.81a6,6 0 0 1 2,0.81a2.31,2.31 0 0 0 1.66,0.4l0.25,0.5l0.25,0.26s0,0.35 0.61,0.85s1.31,3.79 1.31,3.79l1.54,5l-0.06,0a0.14,0.14 0 0 0 -0.08,0.17l0.57,1.83a0.27,0.27 0 0 1 -0.06,0.27l-2.77,3a17.39,17.39 0 1 0 4.53,20.53l0.07,0l0.24,-0.06a0.17,0.17 0 0 0 0.12,-0.11a0.21,0.21 0 0 0 0.17,0l0.23,-0.06a0.16,0.16 0 0 0 0.17,-0.1a0.18,0.18 0 0 0 0.17,0l0.23,-0.06a0.18,0.18 0 0 0 0.13,-0.11a0.18,0.18 0 0 0 0.16,0l0.24,-0.06a0.18,0.18 0 0 0 0.12,-0.12a0.17,0.17 0 0 0 0.17,0l0.23,-0.06a0.17,0.17 0 0 0 0.12,-0.11a0.21,0.21 0 0 0 0.17,0l0.23,-0.06a0.2,0.2 0 0 0 0.13,-0.12a0.16,0.16 0 0 0 0.16,0l0.23,-0.06a0.18,0.18 0 0 0 0.13,-0.11a0.18,0.18 0 0 0 0.16,0l0.24,-0.06a0.18,0.18 0 0 1 0.29,-0.08l0.23,-0.06a0.21,0.21 0 0 0 0.1,-0.06a3.26,3.26 0 0 0 2.87,-1.87l2.85,0.15l0.08,0.29a0.42,0.42 0 0 0 0.54,0.23l1.22,-0.42l0.66,0l0.14,0a0.64,0.64 0 0 0 0.56,-0.49l1.44,-0.45a0.42,0.42 0 0 0 0.35,-0.47l0,0a0.41,0.41 0 0 0 -0.53,-0.23l-1.61,0.25a0.67,0.67 0 0 0 -0.24,-0.07l0,0a39.79,39.79 0 0 1 -5.3,-0.51a3.31,3.31 0 0 0 -0.25,-0.75l14,-19.32s2.94,-4.56 4.32,-3.36l2.46,-0.9l-0.43,-1c2.72,-0.84 4.11,-1.46 4.54,-2a2.06,2.06 0 0 1 0.21,0.72a27.83,27.83 0 0 1 -0.21,7.48c0,-0.42 -0.2,-1.25 -0.51,-1.25l-0.88,0a0.14,0.14 0 0 0 -0.12,0.18l0.22,0.48s0,0.87 0,1.44l-0.2,0.08l-1.11,-2.92l0,0s0.17,0 0.11,-0.28s-0.28,-1.88 -0.82,-1.88l-0.1,0a0.16,0.16 0 0 1 -0.16,-0.15a0.72,0.72 0 0 0 -0.4,-0.6a0.14,0.14 0 0 0 -0.14,0l-2.06,0.84a0.15,0.15 0 0 0 -0.1,0.12c0,0.16 -0.08,0.53 0.14,0.7s1.62,0.45 2,1.23l0,0a0.73,0.73 0 0 0 0.22,0.4l1.15,3.05a17.43,17.43 0 1 0 8.11,-2l0.07,0.01zm-41.48,-12.17a2,2 0 0 1 -0.81,0.11l0,-0.24a17.34,17.34 0 0 1 2.11,-0.67a3.82,3.82 0 0 1 -1.3,0.8zm2.15,14.34a0.19,0.19 0 0 1 0.32,0.07l4.28,14.58l0,0a0.17,0.17 0 0 0 -0.16,0.07a0.18,0.18 0 0 0 -0.14,-0.1l-0.24,0a0.2,0.2 0 0 0 -0.16,0.07a0.17,0.17 0 0 0 -0.14,-0.1l-0.23,0a0.18,0.18 0 0 0 -0.16,0.06a0.21,0.21 0 0 0 -0.14,-0.1l0,0a17.29,17.29 0 0 0 -5.53,-11.94l2.3,-2.61zm5.32,19.74l-0.23,0.48c0,0.08 -0.22,0 -0.37,-0.12s-0.3,-0.27 -0.24,-0.33l0.39,-0.36a0.3,0.3 0 0 1 0.36,-0.09l0.09,0.06c0.1,0.08 0.07,0.26 0,0.36zm-0.24,-0.91c0,0.15 -0.15,0.29 -0.31,0.32l-0.62,0.23c-0.07,0 -0.33,-0.39 -0.41,-0.94l1.32,0.17l0.02,0.22zm-8.82,4.84a0.17,0.17 0 0 0 -0.17,0l-0.23,0.06a0.17,0.17 0 0 0 -0.12,0.11a0.21,0.21 0 0 0 -0.17,0l-0.23,0.06a0.2,0.2 0 0 0 -0.13,0.12a0.16,0.16 0 0 0 -0.16,0l-0.23,0.06a0.18,0.18 0 0 0 -0.13,0.11a0.18,0.18 0 0 0 -0.16,0l-0.24,0.06a0.18,0.18 0 0 0 -0.12,0.12a0.17,0.17 0 0 0 -0.17,0l-0.23,0.06a0.15,0.15 0 0 0 -0.12,0.11a0.18,0.18 0 0 0 -0.17,0l-0.19,0.05l-4.91,-5l0,-0.3a0.08,0.08 0 0 1 0.11,-0.08l0.28,0.15a0.08,0.08 0 0 0 0.11,-0.09l-0.07,-0.31a0.08,0.08 0 0 1 0.1,-0.09l0.3,0.11a0.08,0.08 0 0 0 0.1,-0.1l-0.11,-0.3a0.08,0.08 0 0 1 0.1,-0.1l0.3,0.07a0.08,0.08 0 0 0 0.09,-0.11l-0.14,-0.29c0,-0.05 0,-0.11 0.08,-0.11l0.31,0a0.08,0.08 0 0 0 0.07,-0.13l-0.17,-0.26a0.07,0.07 0 0 1 0.06,-0.12l0.11,0l6.79,5.64l0,0l0.28,0.24l-0.14,0.19a0.19,0.19 0 0 0 -0.1,0.1a0.18,0.18 0 0 0 -0.16,0l-0.23,0.06a0.18,0.18 0 0 0 -0.19,-0.09zm-8.89,2.29a0.16,0.16 0 0 0 -0.16,0l-0.24,0.06a0.17,0.17 0 0 0 -0.12,0.11a0.21,0.21 0 0 0 -0.17,0l-0.23,0.06l-0.05,0a0.16,0.16 0 0 0 0,-0.12l0,-0.06a0.19,0.19 0 0 1 0.12,-0.22l0.06,0a0.19,0.19 0 0 0 0.09,-0.3l0,-0.05a0.2,0.2 0 0 1 0,-0.25l0,0a0.19,0.19 0 0 0 -0.09,-0.3l-0.06,0a0.18,0.18 0 0 1 -0.12,-0.21l0,-0.06a0.19,0.19 0 0 0 -0.2,-0.39l-0.07,0a0.2,0.2 0 0 1 -0.21,-0.13l0,0l0,0a0.18,0.18 0 0 0 -0.09,-0.1c0.21,-0.74 0.64,-2.28 0.73,-2.55s0.9,-0.06 0.9,-0.06l0,-0.06l0.42,4.53a0.18,0.18 0 0 0 -0.16,0l-0.23,0.06a0.2,0.2 0 0 0 -0.12,0.04zm-1.06,0.27l0,0l0,0zm-2.51,-9l-0.2,0a0.05,0.05 0 0 1 -0.06,-0.07l0.08,-0.17a0,0 0 0 0 -0.05,-0.07l-0.19,0s-0.07,0 -0.05,-0.07l0.1,-0.17l0,0l0.44,0a2.28,2.28 0 0 0 0.78,0.7l0,0.42a0,0 0 0 0 -0.06,0l-0.15,0.11a0,0 0 0 1 -0.08,0l0,-0.19s0,-0.07 -0.07,0l-0.17,0.1a0,0 0 0 1 -0.07,0l0,-0.2a0.05,0.05 0 0 0 -0.07,0l-0.18,0.07s-0.08,0 -0.06,0l0.06,-0.19a0,0 0 0 0 0,-0.27zm-0.75,-1.83l-0.18,-0.17a0,0 0 0 1 0,-0.08l0.18,-0.08a0.05,0.05 0 0 0 0,-0.09l-0.16,-0.1a0,0 0 0 1 0,-0.09l0,0l0.53,0.22a1.09,1.09 0 0 0 0,0.18l-0.57,0.32l0,0l0.17,-0.1a0.06,0.06 0 0 0 0.03,-0.06l0,0.05zm0.28,-1.3l-0.11,-0.16s0,-0.08 0,-0.08l0.19,0s0.07,0 0,-0.07l-0.1,-0.17a0.05,0.05 0 0 1 0.06,-0.07l0.19,0s0.06,0 0.05,-0.06l-0.01,-0.18a0.05,0.05 0 0 1 0.06,-0.07l0.18,0.06a0,0 0 0 0 0.06,-0.06l0,-0.19a0,0 0 0 1 0.07,0l0.17,0.08s0.08,0 0.07,-0.05l0,-0.2a0,0 0 0 1 0.07,0l0.17,0.1l0,0l0,0.45a2.25,2.25 0 0 0 -0.7,0.77l-0.42,0s0.02,-0.13 0,-0.15l0,0.05zm5,2.46l0.12,0.16a0,0 0 0 1 0,0.07l-0.2,0a0,0 0 0 0 0,0.07l0.09,0.17a0,0 0 0 1 -0.05,0.07l-0.19,0s-0.07,0 -0.05,0.07l0.07,0.18s0,0.08 -0.06,0.06l-0.19,0s-0.07,0 -0.06,0l0.06,0.19a0.05,0.05 0 0 1 -0.07,0.06l-0.18,-0.08s-0.07,0 -0.07,0l0,0.19a0,0 0 0 1 -0.07,0l-0.17,-0.1l0,0l0,-0.45a2.42,2.42 0 0 0 0.69,-0.77l0.42,0a0.06,0.06 0 0 0 -0.09,0.06l0,0.05zm4.79,8a0.16,0.16 0 0 0 -0.16,0l-0.24,0.06a0.17,0.17 0 0 0 -0.12,0.11a0.17,0.17 0 0 0 -0.17,0l-0.23,0.06a0.18,0.18 0 0 0 -0.12,0.12a0.22,0.22 0 0 0 -0.17,0l-0.23,0.06a0.22,0.22 0 0 0 -0.13,0.12a0.16,0.16 0 0 0 -0.16,0l-0.23,0.06a0.2,0.2 0 0 0 -0.13,0.12a0.18,0.18 0 0 0 -0.16,-0.05l-0.27,-0.19a0.18,0.18 0 0 0 -0.12,0.12a0.18,0.18 0 0 0 -0.17,0l-0.11,0l-2.5,-4.53a1.31,1.31 0 0 0 -0.26,-1l0,0l0,-0.14a0.09,0.09 0 0 1 0.07,0l0.24,0.21a0.08,0.08 0 0 0 0.13,-0.06l0,-0.31a0.09,0.09 0 0 1 0.12,-0.09l0.26,0.18l0.05,0l4.86,5a0.18,0.18 0 0 0 -0.05,0.07l0,0.08zm-3.13,0.8a0.25,0.25 0 0 0 -0.17,0l-0.23,0.06a0.2,0.2 0 0 0 -0.13,0.12a0.16,0.16 0 0 0 -0.16,0l-0.24,0.06a0.17,0.17 0 0 0 -0.12,0.11a0.24,0.24 0 0 0 -0.17,0l-0.23,0.06a0.18,0.18 0 0 0 -0.12,0.12a0.18,0.18 0 0 0 -0.17,0l-0.23,0.06l0,0l-0.42,-4.88c0,-0.09 0.06,-0.18 0.08,-0.26l2.45,4.36a0.17,0.17 0 0 0 -0.14,0.11l0,0.08zm-4.64,-0.88l0.33,0l0,0l-0.08,-0.05a0.76,0.76 0 0 0 -0.21,0l-0.04,0.05zm-0.07,-0.41s0,-0.41 0,-1l0,-0.16a0.17,0.17 0 0 0 0,-0.17a0.17,0.17 0 0 0 0.11,-0.12l0.06,-0.24a0.16,0.16 0 0 0 0,-0.16a0.18,0.18 0 0 0 0.11,-0.13l0.04,-0.26a0.18,0.18 0 0 1 0.08,-0.29l0.05,-0.24a0.16,0.16 0 0 0 0,-0.16a0.2,0.2 0 0 0 0.12,-0.13l0.06,-0.23a0.17,0.17 0 0 0 0,-0.12a1.07,1.07 0 0 1 0.25,0c0.54,0.12 0,1 0,1l-0.88,2.41zm-1.44,-3.32a1,1 0 0 0 0,0.25l0,0.05a0.73,0.73 0 0 1 -0.07,-0.3a0.75,0.75 0 0 1 0.73,-0.74l0,0.06a0.69,0.69 0 0 0 -0.66,0.6l0,0.08zm6.62,-7.26a0.21,0.21 0 0 0 0.14,0.1l0.23,0l-0.17,0.1l-0.64,0.05a0.1,0.1 0 0 1 0,-0.07l0.13,-0.15l0.13,0a0.2,0.2 0 0 0 0.18,-0.11l0,0.08zm-1.69,1.44s0,0.07 0,0.09l-0.17,0.1a0.05,0.05 0 0 0 0,0.11l0.17,0.08a0,0 0 0 1 0,0.09l-0.18,0.08l0,0l-0.19,0l-0.18,-0.08l0,-0.09a0.61,0.61 0 0 0 0,-0.14l0.44,-0.25l0.11,0.01zm-2.48,-2.56l0.06,0.17a0,0 0 0 0 0.08,0l0.12,-0.15a0.05,0.05 0 0 1 0.09,0l-0.41,0.49l-0.17,0l0.23,-0.51zm-0.82,8.33a0.17,0.17 0 0 1 0,-0.07l0,0.06l0,0.01zm-0.13,-0.69l0.05,0.24a0.15,0.15 0 0 1 -0.06,-0.16l0,-0.08l0.01,0zm0,-0.21l0,0.14a0.14,0.14 0 0 0 -0.17,-0.08l0,0l0.07,-0.1a0.07,0.07 0 0 1 0.11,0l-0.01,0.04zm-2.13,-3.19s0,0 0,-0.05l0.12,-0.15a0,0 0 0 0 0,-0.07l0.3,-0.28a3.12,3.12 0 0 0 0.23,0.49l-0.65,0.06zm4.65,-3.26a0.06,0.06 0 0 0 0.06,0l0.19,0s0.07,0 0.05,0.06l-0.08,0.18a0.06,0.06 0 0 0 0.05,0.07l0.2,0a0,0 0 0 1 0,0.07l-0.1,0.17l0,0l-0.44,0a2.75,2.75 0 0 0 -0.19,-0.27l0.26,-0.28zm2.58,0.43l0,0zm-4.36,3.88a3.54,3.54 0 0 0 0.45,-0.08l0.4,0.4l0,0.07a0,0 0 0 1 -0.08,0l-0.14,-0.14a0,0 0 0 0 -0.08,0l0,0.19a0,0 0 0 1 -0.09,0l-0.12,-0.15a0,0 0 0 0 -0.08,0l-0.26,-0.29zm-1.32,4.07c0,0.31 0.11,0.8 0.16,1.18l0,0.11a0.22,0.22 0 0 0 0.05,0.17a0.18,0.18 0 0 0 -0.12,0.12l-0.06,0.24a0.22,0.22 0 0 0 0,0.16a0.16,0.16 0 0 0 -0.08,0.06l0,-2l0.05,-0.04zm0.48,-3.73l-0.13,0.15s-0.08,0 -0.08,0l0.41,-0.5l0,0l-0.16,0.38a0,0 0 0 0 -0.04,-0.03zm2.85,-3.5a2.23,2.23 0 0 0 -0.24,-0.49l0.66,-0.06a0.06,0.06 0 0 1 0,0l-0.12,0.16a0,0 0 0 0 0,0.06l-0.3,0.33zm-1,3.44l-0.15,-0.12s-0.06,0 -0.07,0l-0.27,-0.29a2.75,2.75 0 0 0 0.49,-0.23l0.06,0.65s-0.02,0 -0.03,-0.01l-0.03,0zm1.08,-2.93a2.32,2.32 0 0 0 -0.07,-0.38l0.41,-0.4l0.09,0c0.05,0 0.06,0.05 0,0.08l-0.13,0.14a0,0 0 0 0 0,0.08l0.19,0a0.05,0.05 0 0 1 0,0.09l-0.16,0.12l0,0l-0.33,0.27zm-1.57,-1.98l-0.28,-0.08l0.31,-0.36l0,0a0.05,0.05 0 0 0 0.08,0l0.13,-0.13l0,0.25l-0.24,0.32zm-2,-0.42l0.15,0.12a0,0 0 0 0 0.07,0l0.29,0.29a2.3,2.3 0 0 0 -0.51,0.21l-0.06,-0.65a0,0 0 0 1 0.06,0.03zm-1,2.14l-0.37,-0.3l0,0a0,0 0 0 0 0,-0.08l-0.15,-0.14l0.61,0a2.28,2.28 0 0 0 -0.18,0.52l0.09,0zm-0.4,-0.07l-0.15,-0.12a0.05,0.05 0 0 1 0,-0.09l0.5,0.41l0,0l-0.37,-0.16s-0.04,-0.02 -0.07,-0.04l0.09,0zm2.19,2.92l-0.3,0.37l0,0s-0.05,-0.05 -0.08,0l-0.13,0.12l0,-0.61a2.21,2.21 0 0 0 0.42,0.12l0.09,0zm0.79,0.63l-0.1,-0.17s-0.07,0 -0.08,0l-0.09,0.18a0.06,0.06 0 0 1 -0.09,0l-0.08,-0.18a0,0 0 0 0 -0.08,0l-0.11,0.16a0,0 0 0 1 -0.08,0l0,0l0.24,-0.55l0.28,0l0.3,0.53l0,0a0.05,0.05 0 0 1 -0.2,0.03l0.09,0zm-0.9,-5.25l-0.4,-0.4l0,-0.07a0,0 0 0 1 0.08,0l0.13,0.14a0.06,0.06 0 0 0 0.09,0l0,-0.19a0,0 0 0 1 0.08,0l0.12,0.16a0,0 0 0 0 0.08,0l0,0l0.23,0.42a2.53,2.53 0 0 0 -0.5,-0.06l0.09,0zm-0.86,-2.27l0,0l0,-0.29l0.11,0.18a0.08,0.08 0 0 0 -0.2,0.11l0.09,0zm-0.79,5.21l-0.41,0.4l-0.07,0a0.05,0.05 0 0 1 0,-0.09l0.14,-0.13s0,-0.08 0,-0.08l-0.19,0s-0.06,-0.06 0,-0.08l0.15,-0.12a0,0 0 0 0 0,-0.08l-0.13,-0.05l0.5,-0.28a2.52,2.52 0 0 0 -0.08,0.51l0.09,0zm-2.28,0.86l0,0l-0.46,0l0.47,-0.26l-0.09,0.08a0.08,0.08 0 0 0 -0.01,0.18l0.09,0zm3.61,7.83l0,-0.13l0,0l0.32,0a0.72,0.72 0 0 0 -0.41,0.13l0.09,0zm0.34,-2.87l0,0.15s0,-0.08 0,-0.12s0,-0.2 0,-0.28l0,0a0.18,0.18 0 0 0 0.14,0a0.18,0.18 0 0 0 0,0.17a0.16,0.16 0 0 0 -0.23,0.08l0.09,0zm0.13,-0.52l0,0a0.14,0.14 0 0 1 0.1,-0.18l0,0l0,0a0.2,0.2 0 0 0 -0.19,0.19l0.09,-0.01zm6.17,-7.68l0,0l0,0zm-0.41,0l0.08,0l-0.26,0l0.1,-0.06l0.08,0.06zm-6.59,6.4l0,0l0,0.06l0,0l0,-0.06zm12.52,3.1l-0.26,-0.22l0,0l-6.68,-5.55l0,0a0.08,0.08 0 0 0 0.06,-0.13l-0.21,-0.24a0.08,0.08 0 0 1 0,-0.13l0.31,0a0.08,0.08 0 0 0 0.07,-0.08l0.79,0.11l7.05,3l0,0l0.42,0.18a13.49,13.49 0 0 1 -1.52,3.06l-0.03,0zm2.48,-7.76c0,0.37 0,0.74 -0.05,1.11l-0.4,0l0,0.06l-1.92,0l-6.68,-0.74l0.12,0a0.08,0.08 0 0 0 0,-0.14l-0.28,-0.15a0.08,0.08 0 0 1 0,-0.14l0.28,-0.15a0.08,0.08 0 0 0 0,-0.14l-0.3,-0.12a0.08,0.08 0 0 1 0,-0.14l0.25,-0.18a0.08,0.08 0 0 0 0,-0.14l-0.38,-0.18a0.07,0.07 0 0 1 0,-0.13l0.23,-0.21a0.13,0.13 0 0 0 0,0l0.23,-0.13l1.13,-0.1l0.08,0l0.12,0l0.06,0a0.19,0.19 0 0 0 0.12,0.07l0.24,0a0.2,0.2 0 0 0 0.16,-0.07a0.19,0.19 0 0 0 0.14,0.1l0.24,0a0.16,0.16 0 0 0 0.15,-0.06a0.17,0.17 0 0 0 0.15,0.09l0.23,0a0.18,0.18 0 0 0 0.16,-0.06a0.17,0.17 0 0 0 0.14,0.09l0.24,0a0.2,0.2 0 0 0 0.16,-0.07a0.21,0.21 0 0 0 0.14,0.1l0.24,0a0.17,0.17 0 0 0 0.16,-0.06a0.17,0.17 0 0 0 0.14,0.1l0.23,0a0.19,0.19 0 0 1 0.3,0l0.24,0a0.17,0.17 0 0 0 0.16,-0.07a0.18,0.18 0 0 0 0.14,0.1l0.24,0a0.2,0.2 0 0 0 0.16,-0.07a0.17,0.17 0 0 0 0.14,0.1l0.24,0a0.16,0.16 0 0 0 0.15,-0.06a0.21,0.21 0 0 0 0.14,0.1l0.24,0a0.19,0.19 0 0 0 0.16,-0.06a0.17,0.17 0 0 0 0.16,0.3l0.24,0a0.17,0.17 0 0 0 0.16,-0.07a0.17,0.17 0 0 0 0.14,0.1l0.24,0a0.17,0.17 0 0 0 0.15,-0.07a0.21,0.21 0 0 0 0.14,0.1l0.24,0a0.18,0.18 0 0 0 0.16,-0.06a0.21,0.21 0 0 0 0.14,0.1l0.24,0a0.16,0.16 0 0 0 0.1,0c0.05,0.38 0.05,0.66 0.05,0.95zm-0.09,-1.19l-0.24,0a0.19,0.19 0 0 0 -0.16,0.06a0.16,0.16 0 0 0 -0.14,-0.09l-0.24,0a0.16,0.16 0 0 0 -0.15,0.06a0.17,0.17 0 0 0 -0.15,-0.09l-0.23,0a0.19,0.19 0 0 0 -0.16,0.07a0.21,0.21 0 0 0 -0.14,-0.1l-0.24,0a0.19,0.19 0 0 0 -0.16,0.06a0.21,0.21 0 0 0 -0.14,-0.1l-0.24,0a0.19,0.19 0 0 0 -0.16,0.06a0.15,0.15 0 0 0 -0.14,-0.09l-0.23,0a0.16,0.16 0 0 0 -0.16,0.07a0.18,0.18 0 0 0 -0.14,-0.1l-0.24,0a0.2,0.2 0 0 0 -0.16,0.07a0.21,0.21 0 0 0 -0.14,-0.1l-0.24,0a0.19,0.19 0 0 0 -0.16,0.06a0.17,0.17 0 0 0 -0.14,-0.1l-0.24,0a0.16,0.16 0 0 0 -0.15,0.06a0.17,0.17 0 0 0 -0.14,-0.09l-0.24,0a0.17,0.17 0 0 0 -0.16,0.07a0.18,0.18 0 0 0 -0.14,-0.1l-0.24,0a0.2,0.2 0 0 0 -0.16,0.07a0.2,0.2 0 0 0 -0.09,-0.09l5.39,-0.5l0,0.06l0.37,0c0.06,0.36 0.11,0.73 0.14,1.1l-0.04,-0.32zm-0.49,-1.29l0,0l-6,0.56l0,0l-0.24,0a0.19,0.19 0 0 0 -0.16,0.06l0,0a0.17,0.17 0 0 0 -0.14,-0.09l-0.24,0a0.2,0.2 0 0 0 -0.16,0.07a0.17,0.17 0 0 0 -0.14,-0.1l-0.24,0a0.17,0.17 0 0 0 -0.15,0.07l0,-0.05l6.46,-3.62l0,0l0.3,-0.17a14,14 0 0 1 1,3.23l-0.29,0.04zm-1.09,-3.3l0,0l-6.56,3.73l-0.19,0a0.18,0.18 0 0 0 -0.16,0.06a0.17,0.17 0 0 0 -0.14,-0.09l-0.24,0a0.19,0.19 0 0 0 -0.16,0.06a0.17,0.17 0 0 0 -0.14,-0.09l-0.24,0a0.2,0.2 0 0 0 -0.16,0.07a0.18,0.18 0 0 0 -0.1,-0.09l0.14,-0.22a0.08,0.08 0 0 0 0,0l6.13,-6l0,0l0.27,-0.27a14,14 0 0 1 1.77,2.76l-0.22,0.08zm-1.6,-3.11l-0.29,0.28l0,0l-6.14,6l-0.3,0a0.07,0.07 0 0 1 -0.08,-0.11l0.14,-0.28a0.08,0.08 0 0 0 -0.06,-0.05l-0.3,0.07c-0.07,0 -0.12,-0.05 -0.1,-0.1l0.11,-0.3a0.08,0.08 0 0 0 -0.07,-0.11l6,-6.57a13,13 0 0 1 1.05,1.17l0.04,0zm-2.95,-2.16l0,0l-5.55,6.69l0,0a0.08,0.08 0 0 0 -0.13,0l-0.24,0.2a0.08,0.08 0 0 1 -0.13,-0.05l0,-0.31a0.07,0.07 0 0 0 -0.13,0l-0.18,0.19l0,-0.21l3.4,-8l0.05,0l0.13,-0.3a13.45,13.45 0 0 1 3,1.55l-0.22,0.24zm-3.11,-1.61l0,0l-3.24,7.71l0.09,-8.33l0.05,0l0,-0.38a13.72,13.72 0 0 1 3.21,0.71l-0.11,0.29zm-4.33,10.27l-0.13,0l-0.32,-0.56a0.06,0.06 0 0 1 0.09,0l0.1,0.17a0,0 0 0 0 0.08,0l0.09,-0.17a0,0 0 0 1 0.08,0l0.08,0.18s0.07,0 0.09,0l0,0l-0.16,0.38zm-2.59,-10.76l0.06,0l0.72,7.78l-3.86,-6.88l0,0l-0.13,-0.23a13.74,13.74 0 0 1 3.13,-1l0.08,0.33zm-3.24,1l0,0l4,7.12l0.08,0.89a0.12,0.12 0 0 1 -0.08,0l-0.24,-0.2a0.07,0.07 0 0 0 -0.12,0l0,0.29a0.07,0.07 0 0 1 -0.12,0.06l-0.26,-0.17l0,0l-6,-6.13l0,0l-0.27,-0.27a13.69,13.69 0 0 1 2.86,-1.81l0.15,0.22zm-6.88,7.6l0,0l8,3.4l-8.63,-0.14l0,0l-0.43,0a13.77,13.77 0 0 1 0.75,-3.33l0.31,0.07zm-0.55,7l0,-0.06l7.6,-0.7l-6.68,3.76l0,0l-0.31,0.18a13.35,13.35 0 0 1 -0.95,-3.07l0.34,-0.11zm5.61,8.57l0,0l5.54,-6.68l0,0a0.07,0.07 0 0 0 0.12,0.06l0.24,-0.21a0.08,0.08 0 0 1 0.13,0l0,0.08a0.16,0.16 0 0 0 -0.17,0.11l0,0a0.16,0.16 0 0 1 -0.17,0.1l-0.05,0a0.15,0.15 0 0 0 -0.18,0.18l0,0a0.16,0.16 0 0 1 -0.15,0.29l0,0a0.16,0.16 0 0 0 -0.06,0.25l0,0l0,0a0.15,0.15 0 0 1 0,0.2l0,0a0.16,0.16 0 0 0 0.06,0.25l0.05,0a0.16,0.16 0 0 1 0.11,0.18l0,0a0.14,0.14 0 0 0 0,0.13a0.2,0.2 0 0 0 0.09,0l-2.65,6.21l0,0l-0.18,0.42l0.16,0.07a13.67,13.67 0 0 1 -3,-1.57l0.11,-0.07zm3,1.44l0,0l2.68,-6.27a0.14,0.14 0 0 1 0.14,0.1l0,0a0.16,0.16 0 0 0 0.25,0.07l0,0a0.15,0.15 0 0 1 0.2,0l0.04,2.59a0.19,0.19 0 0 0 -0.17,0.23l0,0.06a0.18,0.18 0 0 1 -0.12,0.21l-0.06,0a0.18,0.18 0 0 0 -0.08,0.3l0,0l0,0a0.2,0.2 0 0 1 0,0.25l0,0.05a0.18,0.18 0 0 0 0.06,0.29a0.19,0.19 0 0 0 0.09,0.14a0.19,0.19 0 0 0 0,0.19l0.09,0.23a0.19,0.19 0 0 0 0.2,0.11l0,2.18l-0.06,0l0,0.39a13.66,13.66 0 0 1 -3.39,-0.63l0.13,-0.49zm4,-1.34zm3,2l-0.05,0l-0.22,-2.37l0.07,0l0.23,-0.06a0.2,0.2 0 0 0 0.13,-0.12a0.16,0.16 0 0 0 0.16,0l0.23,-0.06a0.18,0.18 0 0 0 0.13,-0.11a0.18,0.18 0 0 0 0.16,0l0.24,-0.06a0.18,0.18 0 0 0 0.12,-0.12a0.18,0.18 0 0 0 0.17,0l0.23,-0.06a0.15,0.15 0 0 0 0.12,-0.11a0.21,0.21 0 0 0 0.17,0l0.09,0l1,1.88l0,0l0.22,0.38a13.67,13.67 0 0 1 -3.16,1l-0.04,-0.19zm3.19,-1.15l0,0l-1,-1.85l0,0a0.2,0.2 0 0 0 0.13,-0.12a0.16,0.16 0 0 0 0.16,0l0.24,-0.06a0.17,0.17 0 0 0 0.12,-0.11a0.2,0.2 0 0 0 0.17,0l0.23,-0.06a0.18,0.18 0 0 0 0.12,-0.12a0.18,0.18 0 0 0 0.17,0l0.23,-0.06a0.18,0.18 0 0 0 0.13,-0.11a0.18,0.18 0 0 0 0.16,0l0.23,-0.06a0.2,0.2 0 0 0 0.13,-0.12a0.16,0.16 0 0 0 0.16,0l0.24,-0.06a0.17,0.17 0 0 0 0.12,-0.11a0.21,0.21 0 0 0 0.17,0l0.1,0l0.87,0.89l0,0l0.27,0.28a14,14 0 0 1 -2.85,1.81l0,0l-0.3,-0.14zm7.29,-7.45l-0.41,-0.17l0,0l-6.65,-2.84l7.61,1a14.28,14.28 0 0 1 -0.53,2.04l-0.02,-0.03zm-0.39,-3.28l0.71,0l0,0.06l0.38,0l0,0l-1.09,-0.06zm4.82,-1.27l0,-0.43a0.18,0.18 0 0 0 0.13,-0.06a0.16,0.16 0 0 0 0.14,0.09l0.24,0a0.16,0.16 0 0 0 0.15,-0.06a0.19,0.19 0 0 0 0.14,0.09l0.24,0a0.19,0.19 0 0 0 0.16,-0.07a0.21,0.21 0 0 0 0.14,0.1l0.2,0l0.13,0.44l0,0l-0.19,-0.11a0.06,0.06 0 0 0 -0.09,0.05l0,0.22a0.06,0.06 0 0 1 -0.09,0.06l-0.2,-0.08a0.06,0.06 0 0 0 -0.09,0.07l0,0.21a0.06,0.06 0 0 1 -0.07,0.08l-0.22,0a0.06,0.06 0 0 0 -0.07,0.08l0.06,0.21s0,0.08 -0.06,0.08l-0.25,0.01a0.07,0.07 0 0 0 -0.06,0.1l0.09,0.19a0.06,0.06 0 0 1 0,0.09l-0.22,0a0.06,0.06 0 0 0 0,0.1l0.12,0.18a0.06,0.06 0 0 1 0,0.1l-0.22,0l-0.09,0a17.78,17.78 0 0 0 0,-1.71l-0.02,-0.03zm1.88,1.77l-0.06,0.08c-0.07,0.1 -0.26,0.08 -0.36,0l-0.48,-0.23c-0.07,0 0,-0.21 0.12,-0.36s0.28,-0.3 0.33,-0.24l0.36,0.38c0.12,0.11 0.19,0.3 0.11,0.4l-0.02,-0.03zm1.72,-1l-0.15,-0.48c0.2,0 0.32,0.09 0.33,0.18l0,0.06l-0.18,0.24zm-18.42,-4.79a0.08,0.08 0 0 0 -0.12,-0.05l-0.26,0.17a0.08,0.08 0 0 1 -0.13,-0.06l0,-0.16l5.64,-6.79l0.05,0l0.23,-0.28c0.25,0.18 0.49,0.37 0.73,0.56l-6.14,6.61zm-1.44,-9.58l0,0.4l0.06,0l-0.1,8.63l-0.07,0.17l-0.06,-0.24a0.08,0.08 0 0 0 -0.14,0l-0.18,0.25a0.08,0.08 0 0 1 -0.14,0l-0.12,-0.3a0.08,0.08 0 0 0 -0.14,0l-0.15,0.27a0.08,0.08 0 0 1 -0.14,0l-0.16,-0.35a0.08,0.08 0 0 0 -0.14,0l-0.11,0.3a0.08,0.08 0 0 1 -0.14,0l-0.18,-0.25a0.08,0.08 0 0 0 -0.14,0l-0.08,0.31a0.08,0.08 0 0 1 -0.12,0l-0.42,-0.75l-0.75,-8l0.08,0l0,-0.37a14.32,14.32 0 0 1 2.28,-0.19c0.33,0.02 0.72,0.04 1.06,0.07l0,0.05zm-10,3.22l0.29,0.29l0,0l6,6.15l0,0.3a0.07,0.07 0 0 1 -0.11,0.07l-0.29,-0.14a0.08,0.08 0 0 0 -0.11,0.09l0.07,0.31a0.07,0.07 0 0 1 -0.1,0.09l-0.3,-0.11a0.08,0.08 0 0 0 -0.1,0.1l0.11,0.3a0.08,0.08 0 0 1 -0.09,0.1l-0.22,-0.19a0.08,0.08 0 0 0 -0.09,0.11l0.15,0.28a0.08,0.08 0 0 1 -0.08,0.11l-0.31,0a0.08,0.08 0 0 0 -0.08,0.12l0.18,0.26a0.08,0.08 0 0 1 -0.07,0.13l-0.1,0l-6.8,-5.64l0,0l-0.28,-0.23a13.61,13.61 0 0 1 2.33,-2.55l0,0.05zm-2.43,2.69l0.27,0.22l0,0l6.72,5.45l0,0a0.08,0.08 0 0 0 -0.06,0.13l0.21,0.24a0.08,0.08 0 0 1 -0.05,0.13l-0.32,0a0.08,0.08 0 0 0 0,0.14l0.09,0.07l-8,-3.42l0,-0.05l-0.31,-0.14a13.75,13.75 0 0 1 1.45,-2.82l0,0.05zm-2.36,6.61l0.45,0l0,0l8.92,0.09a0.1,0.1 0 0 1 -0.06,0.05l-0.3,0.08a0.08,0.08 0 0 0 0,0.14l0.26,0.18a0.08,0.08 0 0 1 0,0.14l-0.29,0.12a0.08,0.08 0 0 0 0,0.14l0.28,0.15a0.08,0.08 0 0 1 0,0.14l-0.28,0.15a0.08,0.08 0 0 0 0,0.14l0.29,0.12a0.07,0.07 0 0 1 0,0.13l-0.26,0.19a0.07,0.07 0 0 0 0,0.13l0.3,0.08a0.1,0.1 0 0 1 0.05,0l-0.93,0.52l-7.87,0.73l0,-0.06l-0.36,0a13.16,13.16 0 0 1 -0.19,-2.28c-0.05,-0.35 -0.04,-0.72 -0.01,-1.08zm1.24,6.9l0.33,-0.19l0,0l6.88,-3.91l1.06,-0.1a0.08,0.08 0 0 1 0,0.08l-0.21,0.24a0.08,0.08 0 0 0 0.06,0.13l0.31,0a0.08,0.08 0 0 1 0.07,0.12l-0.18,0.26a0.11,0.11 0 0 0 0,0.05l-6.13,6l0,0l-0.28,0.27a13.78,13.78 0 0 1 -1.91,-2.95zm2,3.1l0.29,-0.29l0,0l6.15,-6l0.3,0c0.06,0 0.11,0.06 0.08,0.11l-0.21,0.24a0.08,0.08 0 0 0 0.09,0.11l0.31,-0.11a0.07,0.07 0 0 1 0.09,0.1l-0.11,0.3a0.08,0.08 0 0 0 0.1,0.1l0.3,-0.11a0.07,0.07 0 0 1 0.1,0.09l-0.07,0.31a0.08,0.08 0 0 0 0.11,0.09l0.29,-0.15a0.08,0.08 0 0 1 0.11,0.08l0,0.32a0.08,0.08 0 0 0 0.12,0.07l0.26,-0.18a0.08,0.08 0 0 1 0.12,0.07l0,0.1l-5.67,6.81l0,0l-0.24,0.28a14.29,14.29 0 0 1 -2.54,-2.34l0.02,0zm9.35,4.79l0,-0.4l-0.06,0l0,-2.06l0,0l0.12,0.08l0,0l0,0l0.09,0l0.1,0a0.16,0.16 0 0 0 0.19,0a0.19,0.19 0 0 0 0.2,0.08l0.24,-0.06a0.16,0.16 0 0 0 0.12,-0.12a0.21,0.21 0 0 0 0.17,0.05l0.23,-0.06a0.16,0.16 0 0 0 0.12,-0.12a0.18,0.18 0 0 0 0.17,0l0.23,-0.06a0.18,0.18 0 0 0 0.13,-0.11a0.22,0.22 0 0 0 0.16,0l0.35,0.05a0.18,0.18 0 0 0 0.12,-0.12a0.17,0.17 0 0 0 0.18,0.12l0.23,-0.06a0.21,0.21 0 0 0 0.1,-0.06l0.22,2.37l-0.06,0l0,0.36a13.35,13.35 0 0 1 -2.29,0.19c-0.34,-0.03 -0.71,-0.04 -1.08,-0.07l0.02,0zm10,-3.22l-0.28,-0.29l0,0l-0.86,-0.8a0.2,0.2 0 0 0 0.12,-0.12a0.16,0.16 0 0 0 0.16,0l0.23,-0.06a0.18,0.18 0 0 0 0.13,-0.11a0.18,0.18 0 0 0 0.16,0l0.24,-0.06a0.18,0.18 0 0 0 0.12,-0.12a0.17,0.17 0 0 0 0.17,0l0.23,-0.06a0.17,0.17 0 0 0 0.12,-0.11a0.18,0.18 0 0 0 0.17,0l0.23,-0.06a0.2,0.2 0 0 0 0.13,-0.12a0.18,0.18 0 0 0 0.16,0l0.23,-0.06a0.2,0.2 0 0 0 0.13,-0.12a0.17,0.17 0 0 0 0.17,0l0,0a13.68,13.68 0 0 1 -1.78,2.09l0.02,0zm10.53,-4.51a0.18,0.18 0 0 0 -0.12,0.12a0.17,0.17 0 0 0 -0.17,0l-0.23,0.06a0.17,0.17 0 0 0 -0.12,0.11a0.18,0.18 0 0 0 -0.17,0l-0.23,0.06a0.2,0.2 0 0 0 -0.13,0.12a0.18,0.18 0 0 0 -0.16,-0.05l-0.23,0.06a0.22,0.22 0 0 0 -0.13,0.12a0.16,0.16 0 0 0 -0.16,0l-0.24,0.06a0.18,0.18 0 0 0 -0.12,0.12a0.22,0.22 0 0 0 -0.17,0l-0.23,0.06a0.18,0.18 0 0 1 -0.29,0.08l-0.23,0.06a0.18,0.18 0 0 0 -0.13,0.12a0.18,0.18 0 0 0 -0.16,-0.05l0,0a16.79,16.79 0 0 0 1.14,-3.81l0.25,0l-0.1,0.09a0.07,0.07 0 0 0 0,0.11l0.21,0.08a0.06,0.06 0 0 1 0,0.1l-0.15,0.16a0.07,0.07 0 0 0 0,0.11l0.22,0a0.06,0.06 0 0 1 0,0.1l-0.12,0.18a0.06,0.06 0 0 0 0,0.1l0.22,0a0.06,0.06 0 0 1 0,0.09l-0.09,0.2s0,0.09 0.06,0.09l0.22,0a0.06,0.06 0 0 1 0.06,0.09l-0.06,0.2a0.07,0.07 0 0 0 0.07,0.09l0.22,0a0.06,0.06 0 0 1 0.07,0.07l0,0.21a0.06,0.06 0 0 0 0.09,0.07l0.2,-0.08a0.07,0.07 0 0 1 0.09,0.06l0,0.22a0.06,0.06 0 0 0 0.09,0.06l0.19,-0.11a0.07,0.07 0 0 1 0.1,0l0,0.22a0.06,0.06 0 0 0 0.1,0l0.17,-0.14a0.08,0.08 0 0 1 0.11,0l0,0.07a0.29,0.29 0 0 0 0.08,0.29l-0.02,0.03zm1.33,-0.54c-0.6,0.08 -1,0 -1,-0.16l0,-0.66c0,-0.16 0.06,-0.39 0.21,-0.41l1.21,-0.12c0.14,0 0.28,0.16 0.31,0.31l0.27,0.58c0,0.12 -0.42,0.38 -1,0.46zm1.79,-1.35c0.07,0 0,0.21 -0.12,0.36s-0.28,0.3 -0.33,0.24l-0.34,-0.38a0.32,0.32 0 0 1 -0.1,-0.37l0,0l0.61,0l0.28,0.15zm0.37,-1.94l-0.23,0l0.14,-0.19l0.09,0.19zm15.46,-25l-16.78,22.77a3.51,3.51 0 0 0 -0.87,-0.26a0.15,0.15 0 0 0 -0.12,-0.07l0,0l-5,-15.46a0.39,0.39 0 0 1 0.23,-0.48c2.36,-0.92 16.33,-6.31 22.37,-6.91a0.26,0.26 0 0 1 0.19,0.42l-0.02,-0.01zm6.63,-4.05l0,0c0.66,-0.18 0.24,-0.6 0.24,-0.6l0.29,0l0,0.08a8.17,8.17 0 0 1 1.2,0.78a12.51,12.51 0 0 0 -1.71,-0.25l-0.02,-0.01zm2.84,0.94l0,0.05l0,0l-0.22,-0.26a0.37,0.37 0 0 1 0.24,0.22l-0.02,-0.01zm9.32,27.32l0,0a0,0 0 0 1 0,0l-0.23,-0.19s0,0 0,-0.05l0.26,0a0.15,0.15 0 0 1 -0.01,0.25l-0.02,-0.01zm-0.63,0.25a0.2,0.2 0 0 1 -0.26,0.08a0.2,0.2 0 0 1 -0.09,-0.27a0.2,0.2 0 1 1 0.35,0.19zm-0.78,0.37a0.18,0.18 0 1 1 0.21,-0.29a0.19,0.19 0 0 1 0,0.26a0.18,0.18 0 0 1 -0.21,0.03zm0.11,0.56a0.2,0.2 0 0 1 -0.28,0a0.2,0.2 0 0 1 0,-0.27a0.2,0.2 0 0 1 0.28,0.28l0,-0.01zm-1,-0.32l-0.09,-1l1,0a2.55,2.55 0 0 1 -0.86,0.95l-0.05,0.05zm-2.11,1.61l0.14,-0.24a0.15,0.15 0 0 1 0.21,-0.06l0,0a0.16,0.16 0 0 1 0.06,0.21l-0.11,0.18a0.15,0.15 0 0 1 -0.22,0.06l0,0a0.09,0.09 0 0 1 -0.08,-0.15zm0.36,-0.57a0.21,0.21 0 0 1 -0.23,0.16l0,0l0.16,-0.36a0.2,0.2 0 0 1 0.07,0.2zm-2.78,-1.6a0.15,0.15 0 0 1 -0.16,0.15l0,0l0.19,-0.18l-0.03,0.03zm-0.41,0l0,-0.06l0.33,0l-0.25,0.25a0.18,0.18 0 0 1 -0.08,-0.23l0,0.04zm-3.56,-13.68l1.88,5l-3.41,-3.49l0,0l-0.28,-0.28a15.51,15.51 0 0 1 1.81,-1.23zm10.28,10.4a0.15,0.15 0 0 1 0.15,-0.15l0,0l-0.18,0.18s0.02,-0.06 0.03,-0.07l0,0.04zm0.41,0l0,0.06l-0.33,0l0.26,-0.25a0.19,0.19 0 0 1 0.07,0.19zm-2,4.71l-0.06,0l0,-0.29a0.21,0.21 0 0 1 0.13,0.1a0.2,0.2 0 0 1 -0.07,0.19zm0,0.47l0,-0.33l0.25,0.25a0.16,0.16 0 0 1 -0.15,0.09l-0.07,0l-0.03,-0.01zm1.87,-4.06a0.19,0.19 0 0 1 -0.16,0.22a0.2,0.2 0 0 1 -0.23,-0.16l0,0l0.29,-0.17a0.21,0.21 0 0 1 0.09,0.11l0.01,0zm-2.6,4l0,-0.09a0.16,0.16 0 0 1 0.21,0l0,0a0.16,0.16 0 0 1 0.06,0.21l-0.06,0.09a0.13,0.13 0 0 1 -0.12,0.08l-0.09,-0.29zm-5.67,-2.07a0.72,0.72 0 0 0 0.15,0.11l-0.41,0l0.26,-0.11zm0.39,-0.22l0.45,-0.25c0.05,0.17 0.1,0.34 0.16,0.5l-0.71,0.07a1,1 0 0 1 0.1,-0.32zm0.71,-1.17l0.19,0.11a0.15,0.15 0 0 1 0,0.2l0,0a0.15,0.15 0 0 1 -0.21,0.06l0,0l0.02,-0.37zm0.24,-0.42a0.16,0.16 0 0 1 -0.21,0.06l0,0l0,-0.36l0.19,0.11a0.16,0.16 0 0 1 -0.02,0.19l0.04,0zm1.73,-3l0.18,0.19l0,0a0.17,0.17 0 0 1 -0.15,-0.16l-0.03,-0.03zm-2.83,-7l2.86,5.19l0.13,1.4l-0.16,0.08l0,0l-0.07,0.12l-0.35,-0.36l-2.41,-6.43zm7.41,10.36a0.17,0.17 0 0 1 0.18,-0.17a0.18,0.18 0 0 1 0,0.36a0.19,0.19 0 0 1 -0.18,-0.19zm-0.21,0c0,0.06 0,0.11 0,0.17l-0.42,-0.17l0.4,-0.22a1.64,1.64 0 0 1 0.02,0.22zm0.1,1.07a0.17,0.17 0 0 1 0,-0.17a0.16,0.16 0 0 1 0,-0.07l0.28,0.22l0,0l-0.28,0.02zm-1.39,1.18a2.87,2.87 0 0 1 -0.4,0.18l-0.65,-0.66a1.74,1.74 0 0 0 1,-0.47l0.05,0.95zm-0.37,0.79a0.18,0.18 0 1 1 0.12,-0.23a0.19,0.19 0 0 1 -0.12,0.25l0,-0.02zm-0.68,-0.43l-0.33,-0.6l0,0l0.14,-0.17l0.69,0.7a2.89,2.89 0 0 1 -0.5,0.07zm-1.84,-5.67l0,0l0,0.27a0.24,0.24 0 0 1 -0.11,-0.09a0.2,0.2 0 0 1 0.13,-0.18l-0.02,0zm0,-0.48l0,0.33l-0.16,-0.25a0.16,0.16 0 0 1 0.15,-0.08l0.06,0l-0.05,0zm0.65,0.52a0.18,0.18 0 1 1 0.1,0.34a0.18,0.18 0 1 1 -0.1,-0.34zm-0.31,0.13l-0.17,-0.18l0,0a0.18,0.18 0 0 1 0.16,0.11a0.16,0.16 0 0 1 0.02,0.07l-0.01,0zm2,0a0.18,0.18 0 0 1 0.16,-0.13l-0.17,0.2a0.15,0.15 0 0 1 0.01,-0.06l0,-0.01zm2.26,1.94a0.18,0.18 0 1 1 -0.34,0.11a0.18,0.18 0 0 1 0.12,-0.23a0.17,0.17 0 0 1 0.22,0.13l0,-0.01zm-4.08,4l0,0l0,-0.28a0.16,0.16 0 0 1 0.16,0a0.16,0.16 0 0 1 0.08,0.05l-0.24,0.23zm-1.94,-4.05zm2.91,2.83l0,0.08l0,-0.09l0,0.01zm1.85,-1.73l0,0l0,0zm-1.5,-1.84l-0.18,0l0.1,-0.12l0.08,0.12zm-1.43,0.48l0,0l-0.09,-0.93a2.76,2.76 0 0 1 0.39,-0.18l0.67,0.68a1.71,1.71 0 0 0 -1.02,0.43l0.05,0zm-0.11,-1.49l0,0l0,-0.14l0.09,0.1l-0.09,0.04zm-1.57,2l0,0a0.16,0.16 0 0 1 -0.1,-0.08l0.1,0.08zm-0.29,0a0.18,0.18 0 0 1 0.15,0.14l-0.28,-0.12a0.19,0.19 0 0 1 0.08,-0.02l0.05,0zm5.2,0.86l0,0l0.53,0.23a2.23,2.23 0 0 1 0,0.23l-0.53,-0.46zm0.8,-1.38s0,0 -0.06,-0.07l0.14,0l-0.08,0.07zm-0.38,0.37l-0.69,0.67a1.71,1.71 0 0 0 -0.47,-1l1,-0.09a2.35,2.35 0 0 1 0.11,0.42l0.05,0zm-2.07,-0.81l-0.15,-0.29l0.43,-0.53a2.86,2.86 0 0 1 0.41,0.15l0,1a1.67,1.67 0 0 0 -0.74,-0.33l0.05,0zm0.71,-1a0.17,0.17 0 0 1 -0.19,0.05l-0.07,0l0.23,-0.28l0,0l0.03,0.23zm-1,0.72l0,0.05l0,-0.06l0,0.01zm-1.47,0.26l-0.13,-0.36l0.09,-0.06l0.04,0.42zm-1.65,2.18a0.2,0.2 0 0 1 -0.17,0.21a0.18,0.18 0 0 1 -0.14,0l0.31,-0.21zm0.12,0.28a0.18,0.18 0 1 1 -0.12,0.22a0.18,0.18 0 0 1 0.07,-0.22l0.05,0zm0.33,-0.54l0.08,0l0.21,0.5l-0.18,0.16a2.44,2.44 0 0 1 -0.16,-0.66l0.05,0zm-0.21,1.12l0,0l0,0l-0.13,0l0.13,0zm0.37,-0.37l0.18,-0.17l0.22,0.54l-0.21,0a1.76,1.76 0 0 1 -0.24,-0.37l0.05,0zm2.11,0.82l0.12,0.23l-0.46,0.55a2.86,2.86 0 0 1 -0.41,-0.15l0,-1a1.82,1.82 0 0 0 0.7,0.37l0.05,0zm-0.47,1.13l0,0a0.19,0.19 0 0 1 -0.12,0.11l0.12,-0.11zm2.01,0.11l0.15,0.15l0,0a0.18,0.18 0 0 1 -0.15,-0.15a0.11,0.11 0 0 1 0,0zm0,-0.13a0.18,0.18 0 0 1 0.07,0l0,0l0,0.14l-0.07,-0.14zm0.47,-2.57l0.15,-0.09l0.61,0.51a2.86,2.86 0 0 1 -0.15,0.41l-0.95,0a1.75,1.75 0 0 0 0.36,-0.87l-0.02,0.04zm1.09,0.53l0,0a0.17,0.17 0 0 1 0.12,0.14l-0.12,-0.14zm0.18,-0.25s0,0 0,0l0.36,0.15a0.2,0.2 0 0 1 -0.21,0.11a0.21,0.21 0 0 1 -0.13,-0.3l-0.02,0.04zm-1,-0.59l-0.21,-0.09l0.64,-0.63a2.13,2.13 0 0 1 0.1,0.42l-0.53,0.3zm1.42,-0.81a0.15,0.15 0 1 1 0.15,-0.26l0.09,0a0.09,0.09 0 0 1 0.06,0.06l-0.29,0.16l-0.01,0.04zm0.37,-0.58l0.83,-0.08l-0.72,0.41c0,-0.15 -0.03,-0.26 -0.07,-0.37l-0.04,0.04zm-0.82,0.18l-0.06,0l0.13,-0.13l0,0a0.21,0.21 0 0 1 -0.03,0.09l-0.04,0.04zm-1.93,-2.68l-0.18,0l0.18,-0.43l0,0.43zm-0.36,0.77a0.19,0.19 0 0 1 -0.22,0.16l0,0l0.15,-0.36a0.2,0.2 0 0 1 0.11,0.16l-0.04,0.04zm-0.2,0.64l-0.37,0.44l0,-0.06l0.18,-0.41l0.19,0.03zm-0.54,0.39l-0.14,0.33l-0.64,-0.65a3,3 0 0 1 0.54,-0.11l0.24,0.43zm-0.61,-1.06l0,0l0.1,0.18a0.21,0.21 0 0 1 -0.06,-0.22l-0.04,0.04zm-0.26,-0.24a0.15,0.15 0 0 1 -0.26,-0.16l0,-0.09a0.16,0.16 0 0 1 0.16,-0.08l0.12,0.21l-0.02,0.12zm-0.58,-0.37l-0.1,-1.09l0.54,0.95a3.22,3.22 0 0 0 -0.4,0.1l-0.04,0.04zm-0.1,1.26a0.19,0.19 0 0 1 0,0.25l-0.13,-0.36a0.17,0.17 0 0 1 0.17,0.07l-0.04,0.04zm-1.81,1.91s0,0 0,0l0.36,0.16a0.18,0.18 0 0 1 -0.21,0.11a0.2,0.2 0 0 1 -0.15,-0.27zm0.42,0.39a0.18,0.18 0 0 1 0.17,0.18a0.18,0.18 0 0 1 -0.18,0.18a0.18,0.18 0 1 1 0,-0.36l0.01,0zm0.39,0.23l0,-0.09l0.05,0.1l-0.05,0l0,-0.01zm-1.06,0.77l0,0l0.17,0.1a0.16,0.16 0 0 1 0.06,0.21a0.15,0.15 0 0 1 -0.21,0l-0.1,0a0.18,0.18 0 0 1 -0.06,-0.24l0,0l0.14,-0.07zm0.63,0.48a0.22,0.22 0 0 1 0.11,0l-0.17,0.16l0,0a0.2,0.2 0 0 1 0.06,-0.16zm2,2.71l0.06,0l-0.06,0.15l0,-0.15zm0.32,-0.77a0.2,0.2 0 0 1 0.14,-0.15l-0.12,0.27a0.25,0.25 0 0 1 -0.04,-0.12l0.02,0zm0.24,-0.64l0.22,-0.27l-0.12,0.29l-0.1,-0.02zm1.09,0.52a0.23,0.23 0 0 1 0.09,0.14l0,0l-0.09,-0.14zm0.89,0.76l0.1,1l-0.5,-0.88a2.67,2.67 0 0 0 0.35,-0.12l0.05,0zm2.54,-2.93l0.45,0.19l-0.49,0a1.29,1.29 0 0 0 -0.01,-0.19l0.05,0zm-0.88,-0.51a0.17,0.17 0 0 1 0.14,0a0.2,0.2 0 0 1 0.16,0.16l-0.3,-0.16zm-1.9,-3.81l0,0l0,-0.27a0.15,0.15 0 0 1 0.16,0l0.05,0l0,0l-0.21,0.27zm-3.16,0l-0.07,0.12l-0.11,-0.3l0.18,0.18zm-1.54,3.89a0.19,0.19 0 0 1 0.17,-0.22a0.21,0.21 0 0 1 0.17,0.06l-0.33,0.19a0,0 0 0 1 -0.01,-0.03zm2.19,2.95l0,0l0,0.27a0.15,0.15 0 0 1 -0.16,0l-0.06,0l0,0l0.22,-0.27zm4.83,-2.83l0,0a0.16,0.16 0 0 1 -0.06,-0.21a0.15,0.15 0 0 1 0.21,0l0.19,0.1a0.16,0.16 0 0 1 0,0.22l0,0a0,0 0 0 1 0,0l-0.34,-0.11zm0.4,-0.75l-0.06,0.11a0.09,0.09 0 0 1 -0.12,0l-0.22,-0.12a0.16,0.16 0 0 1 -0.06,-0.21a0.15,0.15 0 0 1 0.21,-0.06l0.22,0.13a0.08,0.08 0 0 1 0.03,0.15zm-0.22,-0.69l0,0a0.09,0.09 0 0 1 -0.12,0l0,0l0.19,-0.11a0.14,0.14 0 0 1 -0.07,0.11zm9.65,-1.68l0,0.06l-8.2,0.76l7.17,-4l0,0.05l0.31,-0.18a14.12,14.12 0 0 1 1.05,3.3l-0.33,0.01zm-10.38,1l-0.3,0a0.23,0.23 0 0 1 0.1,-0.15a0.2,0.2 0 0 1 0.25,0.07l-0.05,0.08zm-0.49,-0.09a0.18,0.18 0 1 1 0,-0.25a0.18,0.18 0 0 1 0,0.27l0,-0.02zm-0.07,-0.55a0.2,0.2 0 1 1 -0.28,-0.28a0.2,0.2 0 0 1 0.28,0a0.21,0.21 0 0 1 0,0.3l0,-0.02zm-0.3,0.72l-1,0.09l0,-1a2.67,2.67 0 0 1 1,0.93l0,-0.02zm-0.26,-0.88a0.18,0.18 0 0 1 -0.25,0a0.19,0.19 0 0 1 0,-0.25a0.19,0.19 0 0 1 0.26,0a0.18,0.18 0 0 1 -0.01,0.27l0,-0.02zm-0.23,-0.5a0.2,0.2 0 0 1 -0.27,0.08a0.19,0.19 0 0 1 -0.08,-0.26a0.2,0.2 0 1 1 0.35,0.18zm6,-8.47l0,0l-6.19,7.45l-0.35,-0.13l0,-0.8l3.48,-8.13l0,0l0.13,-0.3a13.57,13.57 0 0 1 3,1.58l-0.07,0.33zm-3.16,-1.62l0,0l-3.26,7.9l0,-8.53l0.06,0l0,-0.39a13.9,13.9 0 0 1 3.29,0.73l-0.09,0.29zm-3.9,9.28l0,0a0.15,0.15 0 0 1 -0.21,0.06a0.16,0.16 0 0 1 0,-0.21l0.1,-0.18a0.17,0.17 0 0 1 0.22,-0.06l0.05,0a0.08,0.08 0 0 1 0,0l-0.16,0.39zm-0.28,0.38a0.18,0.18 0 0 1 0.18,-0.16l-0.14,0.32a0.22,0.22 0 0 1 -0.04,-0.16zm-0.3,1l-0.16,-0.3l0.29,0l-0.13,0.3zm0,-0.52a0.18,0.18 0 1 1 0.18,-0.18a0.18,0.18 0 0 1 -0.22,0.14l0.04,0.04zm0,-1l-0.13,0.22a0.15,0.15 0 0 1 -0.21,0.06a0.16,0.16 0 0 1 -0.06,-0.21l0.13,-0.22a0.09,0.09 0 0 1 0.12,0l0.11,0.07a0.08,0.08 0 0 1 -0.02,0.05l0.06,0.03zm-0.22,0.54a0.21,0.21 0 0 1 -0.14,0.22l-0.19,-0.34l0.11,-0.05a0.2,0.2 0 0 1 0.16,0.14l0.06,0.03zm-2.36,-10.18l0.06,0l0.74,7.93l-3.18,-5.66l-0.24,-0.63l-0.08,-1.24a13.91,13.91 0 0 1 2.67,-0.77l0.03,0.37zm-1.76,8.94l0.34,1.64l-0.7,0.41l-1.47,-1.22a3.77,3.77 0 0 1 1.13,-2.71l0.7,1.88zm-0.44,2.12l-1,0.56a5.26,5.26 0 0 1 -0.39,-1.65l0,0l1.39,1.09zm-8.1,-2.28l0,-0.05l6.87,2.94a0.2,0.2 0 0 1 0,0.08l-0.06,0l0.26,0.41l-7.81,-0.08l0,-0.06l-0.4,0a14.25,14.25 0 0 1 0.77,-3.4l0.37,0.16zm8.83,5.4l0,0.07l-0.29,0.16a1.1,1.1 0 0 1 0.26,-0.23l0.03,0zm-9.39,1.77l0,-0.06l7.76,-0.72l-6.79,3.81l0,0l-0.32,0.18a13.8,13.8 0 0 1 -1,-3.14l0.35,-0.07zm10.39,-1l0.28,0a0.21,0.21 0 0 1 -0.1,0.11a0.19,0.19 0 0 1 -0.23,0l0.05,-0.11zm0.47,0.07a0.18,0.18 0 1 1 0,0.25a0.18,0.18 0 0 1 -0.03,-0.27l0.03,0.02zm0.07,0.55a0.19,0.19 0 0 1 0.28,0a0.2,0.2 0 0 1 0,0.28a0.19,0.19 0 0 1 -0.27,0a0.19,0.19 0 0 1 -0.04,-0.3l0.03,0.02zm0.32,-0.7l1,-0.09l0,1a2.59,2.59 0 0 1 -1.03,-0.93l0.03,0.02zm0.23,0.86a0.18,0.18 0 1 1 0,0.26a0.19,0.19 0 0 1 -0.03,-0.28l0.03,0.02zm0.23,0.51a0.2,0.2 0 0 1 0.27,-0.09a0.2,0.2 0 0 1 -0.19,0.35a0.2,0.2 0 0 1 -0.13,-0.28l0.05,0.02zm-6.05,8.46l0,0l6.18,-7.45l0.35,0.13l0,0.49l-3.53,8.23l0,0l-0.18,0.43l0.18,0.07a14,14 0 0 1 -3.12,-1.61l0.12,-0.29zm3.12,1.47l-0.05,0l3.42,-8l-0.1,8.82l0,0l0,0.41a13.59,13.59 0 0 1 -3.39,-0.8l0.12,-0.43zm4.48,-10.62l0.26,0.47l-0.16,0a1.51,1.51 0 0 1 -0.3,0l0.2,-0.47zm0.07,0.69a0.18,0.18 0 0 1 0.17,0.18a0.18,0.18 0 0 1 -0.36,0a0.19,0.19 0 0 1 0.22,-0.18l-0.03,0zm0,1l0.13,-0.22a0.15,0.15 0 0 1 0.21,-0.06l0,0a0.16,0.16 0 0 1 0,0.21l-0.01,0.23a0.1,0.1 0 0 1 -0.12,0l-0.12,-0.07a0.08,0.08 0 0 1 -0.01,-0.1l-0.08,0.01zm0.25,-0.54a0.2,0.2 0 0 1 0.14,-0.22l0.19,0.33a0.16,0.16 0 0 1 -0.11,0.05a0.19,0.19 0 0 1 -0.14,-0.17l-0.08,0.01zm0.52,0.46l0,0zm1.74,9.69l-0.05,0l-0.75,-8l3.89,6.93l0,0l0.22,0.39a13.88,13.88 0 0 1 -3.22,1l-0.09,-0.32zm3.25,-1.17l-0.05,0l-4,-7.18l-0.13,-1.31l0.17,-0.08s0,0 0,0l0.07,-0.12l6.8,7l0,0l0.27,0.28a14.28,14.28 0 0 1 -2.86,1.83l0,0l-0.27,-0.42zm-4.15,-9.09l0,0a0.15,0.15 0 0 1 0.14,0.16l0,0l-0.14,-0.16zm0.21,-0.57a0.18,0.18 0 0 1 -0.25,0a0.18,0.18 0 1 1 0.25,0zm11,1.88l0,0l-7.73,-3.3l8.49,0.09l0,0.06l0.39,0a13.81,13.81 0 0 1 -0.64,3.32l-0.51,-0.17zm1.15,-3.34l-0.41,0l0,0.06l-8.78,-0.09l-0.74,-0.32a4,4 0 0 0 0.08,-0.78a4.17,4.17 0 0 0 -0.13,-1l1,-0.56l8.47,-0.78l0,0.06l0.38,0a15,15 0 0 1 0.23,2.25c0,0.4 -0.02,0.78 -0.05,1.15l-0.05,0.01zm-1.28,-7.16l-0.32,0.18l0,0l-7.41,4.15l-1.14,0.11c0,-0.06 0,-0.11 -0.07,-0.17s0,0 0,0l-0.12,-0.07l6.95,-6.8l0,0l0.28,-0.28a14.07,14.07 0 0 1 1.83,2.88zm-2,-3l-0.3,0.29l0,0l-7,6.82l-0.29,-0.17a0.43,0.43 0 0 1 -0.17,-0.6l0,0a0.09,0.09 0 0 0 0,-0.11a4.06,4.06 0 0 0 -1.31,-0.93l6.16,-7.42l0,0l0.24,-0.28a13.88,13.88 0 0 1 2.72,2.4l-0.05,0zm-9.54,-4.89l0,0.41l0.06,0l-0.09,8.8l-0.31,0.72a5.16,5.16 0 0 0 -0.79,-0.07a3.82,3.82 0 0 0 -0.9,0.1l-0.69,-1.22l-0.76,-8.22l0.06,0l0,-0.37a13.83,13.83 0 0 1 2.33,-0.2c0.38,-0.06 0.76,-0.06 1.14,0l-0.05,0.05zm-10.16,3.24l0.29,0.29l0,0l3.61,3.68l0,0.13a4.14,4.14 0 0 0 -1.27,2.76l-4.8,-4l0,0l-0.29,-0.24a13.82,13.82 0 0 1 2.46,-2.62zm-2.48,2.75l0.27,0.22l0,0l4.88,4c0,0.09 0,0.17 0,0.26a5.6,5.6 0 0 0 0.32,1.51l-6.76,-2.89l0,-0.05l-0.25,-0.15a13.86,13.86 0 0 1 1.54,-2.9zm-2.41,6.79l0.41,0l0,-0.06l7.9,0.09l0,0l-0.18,0.4l0.42,0.12l-0.12,0.3l0.48,0.06l-0.3,0.18l0.12,0.24s0.36,-0.06 0.18,0.54a0.62,0.62 0 0 0 0.11,0.58l-0.48,0.27l-8,0.74l0,0l-0.37,0a13.82,13.82 0 0 1 -0.21,-2.35c0,-0.36 0.01,-0.74 0.04,-1.11zm1.26,7l0.34,-0.19l0,-0.05l7,-3.94l1.63,-0.11a1.22,1.22 0 0 0 0.07,0.17l0,0l0.11,0.06l-6.94,6.8l0,0l-0.28,0.28a14,14 0 0 1 -1.96,-2.98l0.03,-0.04zm2,3.16l0.29,-0.29l0,0l7,-6.82l0.3,0.17a0.44,0.44 0 0 1 0.16,0.6l0,0l0,0a0.09,0.09 0 0 0 0,0.1a4.1,4.1 0 0 0 1.32,0.93l-6.2,7.44l-0.05,0l-0.24,0.29a14.58,14.58 0 0 1 -2.55,-2.38l-0.03,-0.04zm9.57,4.95l0,-0.41l0,0l0.09,-9.11l0.19,-0.44a3.82,3.82 0 0 0 0.9,0.1a4.1,4.1 0 0 0 0.94,-0.11l0.65,1.15l0.76,8.3l0,0l0,0.37a13.74,13.74 0 0 1 -2.33,0.2c-0.45,-0.05 -0.8,-0.05 -1.2,-0.05zm10.2,-3.29l-0.28,-0.29l0,0l-6.82,-7l0.17,-0.3a0.44,0.44 0 0 1 0.6,-0.16l0,0a0.08,0.08 0 0 0 0.1,0a4.25,4.25 0 0 0 0.94,-1.31l7.42,6.16l0,0l0.29,0.24a13.88,13.88 0 0 1 -2.42,2.64l0,0.02zm2.48,-2.71l-0.28,-0.28l0,0l-7.44,-6.18a3.59,3.59 0 0 0 0.12,-0.35l0.82,0l8,3.42l0,0.05l0.42,0.18a13.89,13.89 0 0 1 -1.64,3.16z"/>
 </g>
</svg>